<svg width="710" height="251" viewBox="0 0 710 251" fill="none" xmlns="http://www.w3.org/2000/svg">
<rect width="710" height="251" rx="20" fill="url(#paint0_linear_0_1)"/>
<path d="M169.637 135.578C171.766 136.691 174.041 137.57 176.463 138.215C178.904 138.859 181.033 139.182 182.85 139.182C184.666 139.182 185.984 138.898 186.805 138.332C187.645 137.746 188.064 136.965 188.064 135.988C188.064 134.914 187.381 133.957 186.014 133.117C185.232 132.629 183.387 131.73 180.477 130.422C177.566 129.113 175.418 127.863 174.031 126.672C171.277 124.328 169.9 121.164 169.9 117.18C169.9 113.176 171.346 110.07 174.236 107.863C177.127 105.656 181.072 104.553 186.072 104.553C190.506 104.553 195.027 105.578 199.637 107.629L196.062 116.564C192.098 114.729 188.65 113.811 185.721 113.811C184.275 113.811 183.191 114.064 182.469 114.572C181.766 115.08 181.414 115.744 181.414 116.564C181.414 117.385 181.844 118.146 182.703 118.85C183.465 119.436 185.74 120.598 189.529 122.336C193.338 124.055 195.975 125.881 197.439 127.814C198.904 129.729 199.637 132.121 199.637 134.992C199.637 135.07 199.637 135.148 199.637 135.227C199.637 139.133 198.123 142.336 195.096 144.836C192.088 147.336 188.123 148.586 183.201 148.586C183.084 148.586 182.967 148.586 182.85 148.586C180.057 148.586 177.674 148.391 175.701 148C173.729 147.59 171.707 146.887 169.637 145.891V135.578ZM218.738 114.807H226.883V123.391H218.738V136.311C218.738 138.459 219.773 139.533 221.844 139.533C223.406 139.533 225.252 139.152 227.381 138.391V146.74C225.818 147.424 224.344 147.893 222.957 148.146C221.57 148.439 219.939 148.586 218.064 148.586C214.256 148.586 211.492 147.658 209.773 145.803C208.055 143.928 207.195 141.018 207.195 137.072V123.391H203.182V118.762L208.279 115.129L211.238 108.156H218.738V114.807ZM253.221 114.221C254.139 114.221 255.086 114.299 256.062 114.455L256.707 114.572L255.682 125.383C254.744 125.148 253.445 125.031 251.785 125.031C249.324 125.031 247.518 125.588 246.365 126.701C245.213 127.814 244.637 129.475 244.637 131.682V148H233.182V114.807H241.707L243.494 120.109H244.051C245.008 118.352 246.346 116.936 248.064 115.861C249.783 114.768 251.502 114.221 253.221 114.221ZM261.131 106.545C261.131 104.807 261.609 103.527 262.566 102.707C263.543 101.867 265.076 101.447 267.166 101.447C269.275 101.447 270.828 101.877 271.824 102.736C272.82 103.576 273.318 104.846 273.318 106.545C273.318 109.904 271.287 111.584 267.225 111.584C263.162 111.584 261.131 109.904 261.131 106.545ZM272.879 148H261.424V114.807H272.879V148ZM301.648 114.221C305.34 114.221 308.201 115.295 310.232 117.443C312.264 119.592 313.279 122.58 313.279 126.408V148H301.824V129.895C301.824 127.648 301.502 125.979 300.857 124.885C300.213 123.771 299.197 123.215 297.811 123.215C295.857 123.215 294.451 123.996 293.592 125.559C292.752 127.102 292.332 129.738 292.332 133.469V148H280.877V114.807H289.52L290.955 118.938H291.629C293.582 115.793 296.922 114.221 301.648 114.221ZM335.428 140.207H340.936C348.377 140.207 352.098 143.342 352.098 149.611C352.098 153.654 350.379 156.799 346.941 159.045C343.504 161.291 338.66 162.414 332.41 162.414C327.703 162.414 324.07 161.623 321.512 160.041C318.973 158.459 317.703 156.203 317.703 153.273C317.703 149.289 320.164 146.73 325.086 145.598C324.09 145.207 323.211 144.523 322.449 143.547C321.688 142.551 321.307 141.574 321.307 140.617C321.307 139.641 321.59 138.752 322.156 137.951C322.723 137.15 323.904 136.203 325.701 135.109C323.963 134.328 322.605 133.127 321.629 131.506C320.652 129.865 320.164 127.902 320.164 125.617C320.164 122.023 321.395 119.23 323.855 117.238C326.316 115.227 329.832 114.221 334.402 114.221C335.105 114.221 336.209 114.299 337.713 114.455C339.217 114.592 340.252 114.709 340.818 114.807H352.391V120.344L347.85 122.014C348.475 123.166 348.787 124.484 348.787 125.969C348.787 129.582 347.518 132.365 344.979 134.318C342.439 136.271 338.709 137.248 333.787 137.248C332.615 137.248 331.639 137.17 330.857 137.014C330.584 137.521 330.447 138 330.447 138.449C330.447 139.016 330.896 139.455 331.795 139.768C332.693 140.061 333.904 140.207 335.428 140.207ZM334.52 120.578C332.156 120.578 330.975 122.277 330.975 125.676C330.975 129.074 332.156 130.773 334.52 130.773C336.805 130.773 337.947 129.074 337.947 125.676C337.947 122.277 336.805 120.578 334.52 120.578ZM336.248 149.143H331.766C330.535 149.143 329.49 149.426 328.631 149.992C327.791 150.578 327.371 151.311 327.371 152.189C327.371 153.088 327.879 153.82 328.895 154.387C329.91 154.973 331.268 155.266 332.967 155.266C335.721 155.266 337.938 154.914 339.617 154.211C341.297 153.527 342.137 152.639 342.137 151.545C342.137 149.943 340.174 149.143 336.248 149.143ZM410.135 105.168V130.949C410.135 136.574 408.553 140.92 405.389 143.986C402.225 147.053 397.674 148.586 391.736 148.586C385.818 148.586 381.297 147.092 378.172 144.104C375.047 141.115 373.484 136.818 373.484 131.213V105.168H385.115V130.305C385.115 133.293 385.672 135.48 386.785 136.867C387.898 138.254 389.607 138.947 391.912 138.947C394.217 138.947 395.896 138.273 396.951 136.926C398.025 135.559 398.562 133.332 398.562 130.246V105.168H410.135ZM431.609 114.807H439.754V123.391H431.609V136.311C431.609 138.459 432.645 139.533 434.715 139.533C436.277 139.533 438.123 139.152 440.252 138.391V146.74C438.689 147.424 437.215 147.893 435.828 148.146C434.441 148.439 432.811 148.586 430.936 148.586C427.127 148.586 424.363 147.658 422.645 145.803C420.926 143.928 420.066 141.018 420.066 137.072V123.391H416.053V118.762L421.15 115.129L424.109 108.156H431.609V114.807ZM445.818 106.545C445.818 104.807 446.297 103.527 447.254 102.707C448.23 101.867 449.764 101.447 451.854 101.447C453.963 101.447 455.516 101.877 456.512 102.736C457.508 103.576 458.006 104.846 458.006 106.545C458.006 109.904 455.975 111.584 451.912 111.584C447.85 111.584 445.818 109.904 445.818 106.545ZM457.566 148H446.111V114.807H457.566V148ZM477.02 148H465.564V102.414H477.02V148ZM484.725 106.545C484.725 104.807 485.203 103.527 486.16 102.707C487.137 101.867 488.67 101.447 490.76 101.447C492.869 101.447 494.422 101.877 495.418 102.736C496.414 103.576 496.912 104.846 496.912 106.545C496.912 109.904 494.881 111.584 490.818 111.584C486.756 111.584 484.725 109.904 484.725 106.545ZM496.473 148H485.018V114.807H496.473V148ZM517.625 114.807H525.77V123.391H517.625V136.311C517.625 138.459 518.66 139.533 520.73 139.533C522.293 139.533 524.139 139.152 526.268 138.391V146.74C524.705 147.424 523.23 147.893 521.844 148.146C520.457 148.439 518.826 148.586 516.951 148.586C513.143 148.586 510.379 147.658 508.66 145.803C506.941 143.928 506.082 141.018 506.082 137.072V123.391H502.068V118.762L507.166 115.129L510.125 108.156H517.625V114.807ZM535.789 162.414C534.324 162.414 532.762 162.248 531.102 161.916V152.922C532.137 153.156 533.23 153.273 534.383 153.273C536.531 153.273 538.172 152.521 539.305 151.018C539.871 150.295 540.477 149.133 541.121 147.531L528.055 114.807H540.125L545.75 133.85C546.043 134.943 546.229 136.145 546.307 137.453H546.541C546.678 136.125 546.912 134.943 547.244 133.908L553.016 114.807H564.705L551.58 150.109C549.9 154.602 547.83 157.775 545.369 159.631C542.928 161.486 539.734 162.414 535.789 162.414ZM614.275 114.631H603.846V148H592.273V114.631H581.814V105.168H614.275V114.631ZM618.406 135.578C620.535 136.691 622.811 137.57 625.232 138.215C627.674 138.859 629.803 139.182 631.619 139.182C633.436 139.182 634.754 138.898 635.574 138.332C636.414 137.746 636.834 136.965 636.834 135.988C636.834 134.914 636.15 133.957 634.783 133.117C634.002 132.629 632.156 131.73 629.246 130.422C626.336 129.113 624.188 127.863 622.801 126.672C620.047 124.328 618.67 121.164 618.67 117.18C618.67 113.176 620.115 110.07 623.006 107.863C625.896 105.656 629.842 104.553 634.842 104.553C639.275 104.553 643.797 105.578 648.406 107.629L644.832 116.564C640.867 114.729 637.42 113.811 634.49 113.811C633.045 113.811 631.961 114.064 631.238 114.572C630.535 115.08 630.184 115.744 630.184 116.564C630.184 117.385 630.613 118.146 631.473 118.85C632.234 119.436 634.51 120.598 638.299 122.336C642.107 124.055 644.744 125.881 646.209 127.814C647.674 129.729 648.406 132.121 648.406 134.992C648.406 135.07 648.406 135.148 648.406 135.227C648.406 139.133 646.893 142.336 643.865 144.836C640.857 147.336 636.893 148.586 631.971 148.586C631.854 148.586 631.736 148.586 631.619 148.586C628.826 148.586 626.443 148.391 624.471 148C622.498 147.59 620.477 146.887 618.406 145.891V135.578Z" fill="white"/>
<rect x="64" y="84" width="85" height="85" rx="20" fill="white"/>
<path d="M104.52 134.12C104.52 135.32 103.973 136.613 102.88 138C101.787 139.36 100.4 140.573 98.72 141.64C97.0667 142.68 95.4667 143.36 93.92 143.68V151H90.12V143.76C88.2267 143.627 86.2533 143.387 84.2 143.04C82.1733 142.693 80.68 142.333 79.72 141.96V132.88H84.16C85.2533 135.04 86.5333 136.72 88 137.92C89.4933 139.12 91 139.72 92.52 139.72C93.6133 139.72 94.48 139.413 95.12 138.8C95.7867 138.187 96.12 137.44 96.12 136.56C96.12 135.76 95.8 135 95.16 134.28C94.5467 133.56 93.7867 132.907 92.88 132.32C91.9733 131.707 90.7067 130.933 89.08 130C87.08 128.853 85.48 127.88 84.28 127.08C83.08 126.253 82.0533 125.293 81.2 124.2C80.3467 123.08 79.92 121.853 79.92 120.52C79.92 119.32 80.44 118.027 81.48 116.64C82.5467 115.227 83.88 113.987 85.48 112.92C87.08 111.853 88.6267 111.173 90.12 110.88V103.56H93.92V110.88C95.68 111.013 97.4533 111.253 99.24 111.6C101.053 111.947 102.413 112.293 103.32 112.64V121.68H98.84C97.8267 119.52 96.6667 117.84 95.36 116.64C94.0533 115.44 92.6933 114.84 91.28 114.84C90.3467 114.84 89.6133 115.147 89.08 115.76C88.5467 116.347 88.28 117.107 88.28 118.04C88.28 118.893 88.6 119.707 89.24 120.48C89.88 121.227 90.6667 121.92 91.6 122.56C92.56 123.173 93.8667 123.933 95.52 124.84C97.4667 125.933 99.0267 126.88 100.2 127.68C101.4 128.48 102.413 129.427 103.24 130.52C104.093 131.587 104.52 132.773 104.52 134.08V134.12ZM132.848 132.92C132.848 134.893 132.408 136.68 131.528 138.28C130.674 139.853 129.368 141.107 127.608 142.04C125.874 142.947 123.674 143.4 121.008 143.4C117.221 143.4 114.341 142.44 112.368 140.52C110.394 138.573 109.408 136.013 109.408 132.84V114.44H115.448V131.92C115.448 134.267 115.928 135.92 116.888 136.88C117.848 137.84 119.274 138.32 121.168 138.32C122.501 138.32 123.581 138.093 124.408 137.64C125.234 137.187 125.834 136.48 126.208 135.52C126.608 134.56 126.808 133.347 126.808 131.88V114.44H132.848V132.92ZM117.728 112.04C117.354 111.427 116.861 110.76 116.248 110.04C115.661 109.32 115.048 108.613 114.408 107.92C113.794 107.227 113.234 106.64 112.728 106.16V105.64H116.688C117.381 106.067 118.128 106.573 118.928 107.16C119.728 107.72 120.474 108.36 121.168 109.08C121.861 108.36 122.621 107.72 123.448 107.16C124.274 106.573 125.034 106.067 125.728 105.64H129.688V106.16C129.208 106.64 128.648 107.227 128.008 107.92C127.368 108.613 126.741 109.32 126.128 110.04C125.541 110.76 125.061 111.427 124.688 112.04H117.728Z" fill="#3D5499"/>
<defs>
<linearGradient id="paint0_linear_0_1" x1="439.571" y1="-5.03502e-06" x2="368.566" y2="225.828" gradientUnits="userSpaceOnUse">
<stop offset="0.045" stop-color="#000F72" stop-opacity="0.9955"/>
<stop offset="1" stop-color="#3F59A6" stop-opacity="0.9"/>
</linearGradient>
</defs>
</svg>
